<mxfile host="Electron" modified="2023-12-04T19:40:11.477Z" agent="Mozilla/5.0 (X11; Linux x86_64) AppleWebKit/537.36 (KHTML, like Gecko) draw.io/22.0.3 Chrome/114.0.5735.289 Electron/25.8.4 Safari/537.36" etag="AjZIX8ZBSpZXmRitGe-0" version="22.0.3" type="device">
  <diagram name="Page-1" id="2YBvvXClWsGukQMizWep">
    <mxGraphModel dx="551" dy="440" grid="1" gridSize="10" guides="1" tooltips="1" connect="1" arrows="1" fold="1" page="1" pageScale="1" pageWidth="850" pageHeight="1100" math="0" shadow="0">
      <root>
        <mxCell id="0" />
        <mxCell id="1" parent="0" />
        <mxCell id="jRjO1fyCc4ExQWgGuO6m-1" value="Actor" style="shape=umlActor;verticalLabelPosition=bottom;verticalAlign=top;html=1;fillColor=#1ba1e2;fontColor=#ffffff;strokeColor=#006EAF;" parent="1" vertex="1">
          <mxGeometry x="80" y="110" width="30" height="60" as="geometry" />
        </mxCell>
        <mxCell id="jRjO1fyCc4ExQWgGuO6m-2" value="" style="html=1;points=[];perimeter=orthogonalPerimeter;fillColor=#1ba1e2;fontColor=#ffffff;strokeColor=#006EAF;" parent="1" vertex="1">
          <mxGeometry x="92.5" y="200" width="5" height="190" as="geometry" />
        </mxCell>
        <mxCell id="jRjO1fyCc4ExQWgGuO6m-3" value="" style="html=1;verticalAlign=bottom;labelBackgroundColor=none;endArrow=block;endFill=1;" parent="1" edge="1">
          <mxGeometry width="160" relative="1" as="geometry">
            <mxPoint x="97.5" y="220" as="sourcePoint" />
            <mxPoint x="257.5" y="220" as="targetPoint" />
          </mxGeometry>
        </mxCell>
        <mxCell id="jRjO1fyCc4ExQWgGuO6m-4" value="1: varToStack(i: int) : void" style="text;html=1;strokeColor=none;fillColor=none;align=left;verticalAlign=middle;whiteSpace=wrap;rounded=0;" parent="1" vertex="1">
          <mxGeometry x="100" y="190" width="160" height="30" as="geometry" />
        </mxCell>
        <mxCell id="jRjO1fyCc4ExQWgGuO6m-5" value=":Controller" style="rounded=0;whiteSpace=wrap;html=1;fillColor=#1ba1e2;fontColor=#ffffff;strokeColor=#006EAF;" parent="1" vertex="1">
          <mxGeometry x="210" y="120" width="120" height="60" as="geometry" />
        </mxCell>
        <mxCell id="jRjO1fyCc4ExQWgGuO6m-6" value="" style="endArrow=none;dashed=1;html=1;startArrow=none;" parent="1" source="jRjO1fyCc4ExQWgGuO6m-8" edge="1">
          <mxGeometry width="50" height="50" relative="1" as="geometry">
            <mxPoint x="264.5" y="730" as="sourcePoint" />
            <mxPoint x="264.5" y="190" as="targetPoint" />
          </mxGeometry>
        </mxCell>
        <mxCell id="jRjO1fyCc4ExQWgGuO6m-7" value="" style="endArrow=none;dashed=1;html=1;" parent="1" target="jRjO1fyCc4ExQWgGuO6m-8" edge="1">
          <mxGeometry width="50" height="50" relative="1" as="geometry">
            <mxPoint x="263" y="420" as="sourcePoint" />
            <mxPoint x="264.5" y="190" as="targetPoint" />
          </mxGeometry>
        </mxCell>
        <mxCell id="jRjO1fyCc4ExQWgGuO6m-8" value="" style="html=1;points=[];perimeter=orthogonalPerimeter;fillColor=#1ba1e2;fontColor=#ffffff;strokeColor=#006EAF;" parent="1" vertex="1">
          <mxGeometry x="260" y="200" width="5" height="190" as="geometry" />
        </mxCell>
        <mxCell id="jRjO1fyCc4ExQWgGuO6m-15" value="stack:Stack" style="rounded=0;whiteSpace=wrap;html=1;fillColor=#1ba1e2;fontColor=#ffffff;strokeColor=#006EAF;" parent="1" vertex="1">
          <mxGeometry x="450" y="120" width="120" height="60" as="geometry" />
        </mxCell>
        <mxCell id="jRjO1fyCc4ExQWgGuO6m-23" value="" style="endArrow=none;dashed=1;html=1;startArrow=none;rounded=0;" parent="1" source="jRjO1fyCc4ExQWgGuO6m-25" edge="1">
          <mxGeometry width="50" height="50" relative="1" as="geometry">
            <mxPoint x="524.5" y="730" as="sourcePoint" />
            <mxPoint x="524.5" y="190" as="targetPoint" />
          </mxGeometry>
        </mxCell>
        <mxCell id="jRjO1fyCc4ExQWgGuO6m-24" value="" style="endArrow=none;dashed=1;html=1;rounded=0;" parent="1" target="jRjO1fyCc4ExQWgGuO6m-25" edge="1">
          <mxGeometry width="50" height="50" relative="1" as="geometry">
            <mxPoint x="523" y="420" as="sourcePoint" />
            <mxPoint x="524.5" y="190" as="targetPoint" />
          </mxGeometry>
        </mxCell>
        <mxCell id="jRjO1fyCc4ExQWgGuO6m-25" value="" style="html=1;points=[];perimeter=orthogonalPerimeter;fillColor=#1ba1e2;fontColor=#ffffff;strokeColor=#006EAF;" parent="1" vertex="1">
          <mxGeometry x="520" y="320" width="5" height="10" as="geometry" />
        </mxCell>
        <mxCell id="jRjO1fyCc4ExQWgGuO6m-26" value="1.1: getVar(i) : NumeroComplesso" style="text;html=1;strokeColor=none;fillColor=none;align=left;verticalAlign=middle;whiteSpace=wrap;rounded=0;" parent="1" vertex="1">
          <mxGeometry x="265" y="210" width="195" height="30" as="geometry" />
        </mxCell>
        <mxCell id="jRjO1fyCc4ExQWgGuO6m-27" value="" style="html=1;verticalAlign=bottom;labelBackgroundColor=none;endArrow=block;endFill=1;rounded=0;" parent="1" edge="1">
          <mxGeometry width="160" relative="1" as="geometry">
            <mxPoint x="359.99999999999994" y="250" as="sourcePoint" />
            <mxPoint x="269.99999999999994" y="250" as="targetPoint" />
          </mxGeometry>
        </mxCell>
        <mxCell id="jRjO1fyCc4ExQWgGuO6m-28" value="" style="endArrow=none;html=1;rounded=0;" parent="1" edge="1">
          <mxGeometry width="50" height="50" relative="1" as="geometry">
            <mxPoint x="269.99999999999994" y="240" as="sourcePoint" />
            <mxPoint x="359.99999999999994" y="240" as="targetPoint" />
          </mxGeometry>
        </mxCell>
        <mxCell id="jRjO1fyCc4ExQWgGuO6m-29" value="" style="endArrow=none;html=1;rounded=0;" parent="1" edge="1">
          <mxGeometry width="50" height="50" relative="1" as="geometry">
            <mxPoint x="360" y="250" as="sourcePoint" />
            <mxPoint x="359.99999999999994" y="240" as="targetPoint" />
            <Array as="points" />
          </mxGeometry>
        </mxCell>
        <mxCell id="jRjO1fyCc4ExQWgGuO6m-30" value="1.2: add(var)&amp;nbsp;" style="text;html=1;strokeColor=none;fillColor=none;align=left;verticalAlign=middle;whiteSpace=wrap;rounded=0;" parent="1" vertex="1">
          <mxGeometry x="265" y="290" width="160" height="30" as="geometry" />
        </mxCell>
        <mxCell id="jRjO1fyCc4ExQWgGuO6m-31" value="" style="endArrow=classic;html=1;rounded=0;exitX=1.083;exitY=0.504;exitDx=0;exitDy=0;exitPerimeter=0;" parent="1" edge="1">
          <mxGeometry width="50" height="50" relative="1" as="geometry">
            <mxPoint x="264.99500000000006" y="320" as="sourcePoint" />
            <mxPoint x="509.58" y="320" as="targetPoint" />
          </mxGeometry>
        </mxCell>
        <mxCell id="jRjO1fyCc4ExQWgGuO6m-32" value="alt" style="shape=umlFrame;whiteSpace=wrap;html=1;pointerEvents=0;" parent="1" vertex="1">
          <mxGeometry x="90" y="260" width="479" height="130" as="geometry" />
        </mxCell>
        <mxCell id="jRjO1fyCc4ExQWgGuO6m-33" value="[var != null]" style="text;html=1;align=center;verticalAlign=middle;resizable=0;points=[];autosize=1;strokeColor=none;fillColor=none;" parent="1" vertex="1">
          <mxGeometry x="150" y="260" width="80" height="30" as="geometry" />
        </mxCell>
        <mxCell id="jRjO1fyCc4ExQWgGuO6m-35" value="" style="endArrow=none;dashed=1;html=1;dashPattern=1 3;strokeWidth=2;rounded=0;" parent="1" edge="1">
          <mxGeometry width="50" height="50" relative="1" as="geometry">
            <mxPoint x="83.75" y="330.34000000000003" as="sourcePoint" />
            <mxPoint x="575.25" y="330" as="targetPoint" />
          </mxGeometry>
        </mxCell>
        <mxCell id="Y8EM7Mo8olkfvYHiOQPY-2" value="[else]" style="text;html=1;align=center;verticalAlign=middle;resizable=0;points=[];autosize=1;strokeColor=none;fillColor=none;" parent="1" vertex="1">
          <mxGeometry x="92.5" y="330" width="50" height="30" as="geometry" />
        </mxCell>
        <mxCell id="-0u5F2cThnACIdOs89sX-4" value="&lt;span style=&quot;color: rgb(240, 240, 240); font-family: Helvetica; font-size: 12px; font-style: normal; font-variant-ligatures: normal; font-variant-caps: normal; font-weight: 400; letter-spacing: normal; orphans: 2; text-align: left; text-indent: 0px; text-transform: none; widows: 2; word-spacing: 0px; -webkit-text-stroke-width: 0px; background-color: rgb(27, 29, 30); text-decoration-thickness: initial; text-decoration-style: initial; text-decoration-color: initial; float: none; display: inline !important;&quot;&gt;1.2: errorHandler(NoValueInVarToOperate)&lt;/span&gt;" style="text;whiteSpace=wrap;html=1;" parent="1" vertex="1">
          <mxGeometry x="267.5" y="340" width="245" height="20" as="geometry" />
        </mxCell>
        <mxCell id="-0u5F2cThnACIdOs89sX-5" value="" style="html=1;verticalAlign=bottom;labelBackgroundColor=none;endArrow=block;endFill=1;rounded=0;" parent="1" edge="1">
          <mxGeometry width="160" relative="1" as="geometry">
            <mxPoint x="357.49999999999994" y="380" as="sourcePoint" />
            <mxPoint x="267.49999999999994" y="380" as="targetPoint" />
          </mxGeometry>
        </mxCell>
        <mxCell id="-0u5F2cThnACIdOs89sX-6" value="" style="endArrow=none;html=1;rounded=0;" parent="1" edge="1">
          <mxGeometry width="50" height="50" relative="1" as="geometry">
            <mxPoint x="267.49999999999994" y="369.5199999999999" as="sourcePoint" />
            <mxPoint x="357.49999999999994" y="369.5199999999999" as="targetPoint" />
          </mxGeometry>
        </mxCell>
        <mxCell id="-0u5F2cThnACIdOs89sX-7" value="" style="endArrow=none;html=1;rounded=0;" parent="1" edge="1">
          <mxGeometry width="50" height="50" relative="1" as="geometry">
            <mxPoint x="358" y="380" as="sourcePoint" />
            <mxPoint x="357.49999999999994" y="368.8299999999999" as="targetPoint" />
            <Array as="points" />
          </mxGeometry>
        </mxCell>
      </root>
    </mxGraphModel>
  </diagram>
</mxfile>
